<svg id="v02" xmlns="http://www.w3.org/2000/svg" xmlns:xlink="http://www.w3.org/1999/xlink" viewBox="0 0 474.82 474.82"><defs><style>.cls-1{fill:url(#Nueva_muestra_de_degradado);}.cls-18,.cls-2,.cls-8{fill:none;}.cls-18,.cls-2,.cls-5{stroke:#efcc95;}.cls-2{stroke-linecap:round;stroke-width:5px;stroke-dasharray:0 12.03;}.cls-11,.cls-18,.cls-2,.cls-3,.cls-5,.cls-9{stroke-miterlimit:10;}.cls-10,.cls-11,.cls-3,.cls-5,.cls-9{fill:#0c0c0c;}.cls-11,.cls-3,.cls-9{stroke:#0c0c0c;}.cls-3,.cls-5{stroke-width:2px;}.cls-4{opacity:0.8;}.cls-6{fill:#efcc95;}.cls-7{opacity:0.5;}.cls-9{stroke-width:4px;}.cls-11{stroke-width:6px;}.cls-12{fill:url(#Degradado_sin_nombre_10);}.cls-13{fill:url(#Degradado_sin_nombre_10-2);}.cls-14{fill:url(#Degradado_sin_nombre_10-3);}.cls-15{fill:url(#Degradado_sin_nombre_10-4);}.cls-16{fill:url(#Degradado_sin_nombre_10-5);}.cls-17{fill:url(#Degradado_sin_nombre_10-6);}</style><linearGradient id="Nueva_muestra_de_degradado" x1="236.62" y1="30.5" x2="236.62" y2="453.29" gradientUnits="userSpaceOnUse"><stop offset="0" stop-color="#c49863"/><stop offset="0.28" stop-color="#9c7144"/><stop offset="0.42" stop-color="#c99b65"/><stop offset="0.56" stop-color="#f0bf81"/><stop offset="0.63" stop-color="#ffcd8c"/><stop offset="0.71" stop-color="#edbd7f"/><stop offset="0.88" stop-color="#c0935e"/><stop offset="1" stop-color="#9c7144"/></linearGradient><linearGradient id="Degradado_sin_nombre_10" x1="161.88" y1="292.07" x2="290.9" y2="421.08" gradientUnits="userSpaceOnUse"><stop offset="0" stop-color="#9c7144"/><stop offset="0.21" stop-color="#c99b65"/><stop offset="0.41" stop-color="#f0bf81"/><stop offset="0.52" stop-color="#ffcd8c"/><stop offset="0.63" stop-color="#edbd7f"/><stop offset="0.85" stop-color="#c0935e"/><stop offset="1" stop-color="#9c7144"/></linearGradient><linearGradient id="Degradado_sin_nombre_10-2" x1="199.26" y1="254.69" x2="328.28" y2="383.7" xlink:href="#Degradado_sin_nombre_10"/><linearGradient id="Degradado_sin_nombre_10-3" x1="181.34" y1="187.89" x2="310.35" y2="316.91" xlink:href="#Degradado_sin_nombre_10"/><linearGradient id="Degradado_sin_nombre_10-4" x1="240.29" y1="214.66" x2="369.3" y2="343.68" xlink:href="#Degradado_sin_nombre_10"/><linearGradient id="Degradado_sin_nombre_10-5" x1="291.34" y1="162.61" x2="420.35" y2="291.63" xlink:href="#Degradado_sin_nombre_10"/><linearGradient id="Degradado_sin_nombre_10-6" x1="309.39" y1="144.56" x2="438.4" y2="273.58" xlink:href="#Degradado_sin_nombre_10"/></defs><title>LogoBBF-2023</title><circle class="cls-1" cx="236.62" cy="238.2" r="231.05"/><path d="M282.06,65.37C163.45,65.37,67,161.87,67,280.48s96.5,215.11,215.11,215.11,215.11-96.5,215.11-215.11S400.67,65.37,282.06,65.37Z" transform="translate(-44.65 -43.07)"/><path d="M282.06,43.07c-130.91,0-237.41,106.5-237.41,237.41s106.5,237.41,237.41,237.41,237.41-106.5,237.41-237.41S413,43.07,282.06,43.07Zm0,465.86c-126.17,0-228.45-102.28-228.45-228.45S155.89,52,282.06,52,510.52,154.31,510.52,280.48,408.23,508.93,282.06,508.93Z" transform="translate(-44.65 -43.07)"/><path class="cls-2" d="M504.44,281.27c0,122.15-101,221.17-223.17,221.17S60.1,403.42,60.1,281.27,159.12,58.1,281.27,58.1,504.44,159.12,504.44,281.27Z" transform="translate(-44.65 -43.07)"/><g id="borde_negro_del_marco" data-name="borde negro del marco"><polygon class="cls-3" points="236.62 452.08 450.49 238.2 236.62 24.33 24.74 238.2 236.62 452.08"/></g><g id="Marco_cuadrado" data-name="Marco cuadrado"><g id="Externo" class="cls-4"><rect class="cls-5" x="135.85" y="135.85" width="290.83" height="290.83" transform="translate(-161.16 238.2) rotate(-45)"/></g><g id="Interno" class="cls-4"><rect class="cls-5" x="142.78" y="142.78" width="276.98" height="276.98" transform="translate(-161.16 238.2) rotate(-45)"/></g></g><path class="cls-6" d="M281.27,480.66,81.88,281.27,281.27,81.88,480.66,281.27ZM89,281.27,281.27,473.59,473.59,281.27,281.27,88.95Z" transform="translate(-44.65 -43.07)"/><g id="lineas_internas" data-name="lineas internas" class="cls-7"><polygon class="cls-8" points="236.12 232.87 236.12 232.79 236.04 233 236.04 233 236.12 232.87"/><polygon class="cls-8" points="237.12 231.13 298.35 125.07 281.53 108.02 237.12 230.04 237.12 231.13"/><polygon class="cls-8" points="237.12 233.25 314.32 141.24 299.08 125.81 237.12 233.13 237.12 233.25"/><polygon class="cls-8" points="347.12 303.15 363.9 286.15 238.81 240.62 347.12 303.15"/><polygon class="cls-8" points="237.12 227.12 280.75 107.23 261.63 87.87 237.12 226.89 237.12 227.12"/><polygon class="cls-8" points="260.77 86.99 237.12 63.03 237.12 221.14 260.77 86.99"/><polygon class="cls-8" points="235.07 232.74 236.12 226.81 236.12 63.01 208.94 89.72 234.46 234.43 235.07 232.74"/><polygon class="cls-8" points="138.52 318.65 153.28 333.16 229.56 242.25 138.52 318.65"/><polygon class="cls-8" points="153.99 333.87 169.18 348.8 230.32 242.9 153.99 333.87"/><polygon class="cls-8" points="331.12 319.36 346.39 303.89 238.31 241.49 331.12 319.36"/><polygon class="cls-8" points="84.04 265.08 104.1 284.81 228.07 239.69 84.04 265.08"/><polygon class="cls-8" points="383.45 211.27 363.79 191.35 239.15 236.72 383.45 211.27"/><polygon class="cls-8" points="122.52 302.92 137.8 317.94 228.91 241.49 122.52 302.92"/><polygon class="cls-8" points="329.75 156.88 315.02 141.96 237.67 234.15 329.75 156.88"/><polygon class="cls-8" points="409.54 237.7 384.3 212.14 239.33 237.7 409.54 237.7"/><polygon class="cls-8" points="104.89 285.58 121.78 302.19 228.42 240.62 104.89 285.58"/><path class="cls-8" d="M454.66,281.77H284l146,25.74,25.3-25.63-.27-.27A.5.5,0,0,1,454.66,281.77Z" transform="translate(-44.65 -43.07)"/><polygon class="cls-8" points="363.01 190.57 346.35 173.69 238.81 235.78 363.01 190.57"/><polygon class="cls-8" points="364.67 285.37 384.47 265.31 239.16 239.69 364.67 285.37"/><polygon class="cls-8" points="345.62 172.96 330.46 157.59 238.31 234.91 345.62 172.96"/><polygon class="cls-8" points="105 191.92 85.09 211.5 228.08 236.72 105 191.92"/><path class="cls-8" d="M281.25,458.15l0,0,0,0h0Z" transform="translate(-44.65 -43.07)"/><polygon class="cls-8" points="237.12 246.36 281.85 369.27 298.8 352.1 237.12 245.27 237.12 246.36"/><polygon class="cls-8" points="84.22 212.37 58.45 237.7 227.9 237.7 84.22 212.37"/><polygon class="cls-8" points="236.12 243.53 236.04 243.4 236.04 243.41 236.12 243.61 236.12 243.53"/><polygon class="cls-8" points="237.12 249.51 261.81 389.57 281.07 370.06 237.12 249.28 237.12 249.51"/><polygon class="cls-8" points="122.56 174.66 105.8 191.15 228.41 235.78 122.56 174.66"/><polygon class="cls-8" points="169.92 349.52 186.59 365.92 231.19 243.4 169.92 349.52"/><polygon class="cls-8" points="237.12 414.59 237.12 414.59 260.95 390.44 237.12 255.26 237.12 414.59"/><polygon class="cls-8" points="315.58 335.1 330.41 320.08 237.67 242.25 315.58 335.1"/><polygon class="cls-8" points="233.61 239.66 187.38 366.69 207.89 386.87 233.77 240.1 233.61 239.66"/><polygon class="cls-8" points="186.92 111.38 170.37 127.66 231.19 233 186.92 111.38"/><path class="cls-8" d="M280.77,292.66l-1-5.93-.61-1.69-25.7,145.74,27.36,26.91s0,0,0,0Z" transform="translate(-44.65 -43.07)"/><polygon class="cls-8" points="233.77 236.3 208.08 90.58 187.71 110.61 233.61 236.74 233.77 236.3"/><polygon class="cls-8" points="138.47 159.02 123.3 173.93 228.92 234.91 138.47 159.02"/><polygon class="cls-8" points="153.84 143.91 139.19 158.31 229.56 234.15 153.84 143.91"/><polygon class="cls-8" points="169.63 128.38 154.55 143.2 230.32 233.5 169.63 128.38"/><polygon class="cls-8" points="237.12 243.27 299.53 351.37 314.87 335.82 237.12 243.15 237.12 243.27"/><polygon class="cls-6" points="237.12 226.89 237.04 227.33 237.12 227.12 237.12 226.89"/><polygon class="cls-6" points="237.12 231.13 237.12 230.04 236.12 232.79 236.12 232.87 237.12 231.13"/><path class="cls-6" d="M280.92,104.53h0Z" transform="translate(-44.65 -43.07)"/><path class="cls-6" d="M281.77,298.33l-1-5.67v165s0,0,0,0l.47.46h0l.49-.5h0Z" transform="translate(-44.65 -43.07)"/><polygon class="cls-6" points="237.04 249.07 237.12 249.51 237.12 249.28 237.04 249.07"/><polygon class="cls-6" points="237.12 246.36 237.12 245.27 236.12 243.53 236.12 243.61 237.12 246.36"/><polygon class="cls-6" points="237.12 221.14 237.12 63.03 236.61 62.52 236.12 63.01 236.12 226.81 237.12 221.14"/><polygon class="cls-6" points="237.12 243.15 236.9 242.9 237.12 243.27 237.12 243.15"/><polygon class="cls-6" points="237.12 233.13 236.9 233.5 237.12 233.25 237.12 233.13"/><polygon class="cls-6" points="236.04 233 236.04 233 236.04 233 236.04 233"/><polygon class="cls-6" points="233.77 240.1 207.89 386.87 208.76 387.72 234.46 241.98 233.77 240.1"/><polygon class="cls-6" points="236.12 226.81 235.07 232.74 237.04 227.33 237.12 226.89 261.63 87.87 260.77 86.99 237.12 221.14 236.12 226.81"/><polygon class="cls-6" points="233.51 239.38 231.19 243.4 186.59 365.92 187.38 366.69 233.61 239.66 233.51 239.38"/><polygon class="cls-6" points="233.77 236.3 233.61 236.74 233.72 237.02 233.86 236.78 233.77 236.3"/><polygon class="cls-6" points="237.04 227.33 235.07 232.74 234.46 234.43 234.63 235.43 236.04 233 236.04 233 236.12 232.79 237.12 230.04 281.53 108.02 280.75 107.23 237.12 227.12 237.04 227.33"/><polygon class="cls-6" points="236.12 232.87 236.04 233 236.04 233 234.63 235.43 234.75 236.07 236.9 233.5 237.12 233.13 299.08 125.81 298.35 125.07 237.12 231.13 236.12 232.87"/><polygon class="cls-6" points="233.51 239.38 233.44 239.19 230.32 242.9 169.18 348.8 169.92 349.52 231.19 243.4 233.51 239.38"/><polygon class="cls-6" points="233.86 236.78 233.72 237.02 233.79 237.22 233.91 237.07 233.86 236.78"/><polygon class="cls-6" points="236.9 233.5 234.75 236.07 234.83 236.53 237.67 234.15 315.02 141.96 314.32 141.24 237.12 233.25 236.9 233.5"/><polygon class="cls-6" points="233.44 239.19 233.39 239.04 229.56 242.25 153.28 333.16 153.99 333.87 230.32 242.9 233.44 239.19"/><polygon class="cls-6" points="233.91 237.07 233.79 237.22 233.84 237.36 233.94 237.27 233.91 237.07"/><polygon class="cls-6" points="234.83 236.53 234.89 236.89 238.31 234.91 330.46 157.59 329.75 156.88 237.67 234.15 234.83 236.53"/><polygon class="cls-6" points="233.39 239.04 233.35 238.93 228.91 241.49 137.8 317.94 138.52 318.65 229.56 242.25 233.39 239.04"/><polygon class="cls-6" points="233.94 237.27 233.84 237.36 233.88 237.47 233.97 237.42 233.94 237.27"/><polygon class="cls-6" points="234.89 236.89 234.94 237.19 238.81 235.78 346.35 173.69 345.62 172.96 238.31 234.91 234.89 236.89"/><polygon class="cls-6" points="233.35 238.93 233.31 238.84 228.42 240.62 121.78 302.19 122.52 302.92 228.91 241.49 233.35 238.93"/><polygon class="cls-6" points="233.97 237.42 233.88 237.47 233.91 237.56 233.99 237.53 233.97 237.42"/><polygon class="cls-6" points="233.31 238.84 233.29 238.77 228.07 239.69 104.1 284.81 104.89 285.58 228.42 240.62 233.31 238.84"/><polygon class="cls-6" points="234.94 237.19 234.99 237.45 239.15 236.72 363.79 191.35 363.01 190.57 238.81 235.78 234.94 237.19"/><polygon class="cls-6" points="233.99 237.53 233.91 237.56 233.94 237.64 234.01 237.62 233.99 237.53"/><polygon class="cls-6" points="228.07 239.69 233.29 238.77 233.26 238.7 227.9 238.7 83.16 264.22 84.04 265.08 228.07 239.69"/><polygon class="cls-6" points="234.99 237.45 235.03 237.7 239.33 237.7 384.3 212.14 383.45 211.27 239.15 236.72 234.99 237.45"/><polygon class="cls-6" points="234.01 237.62 233.94 237.64 233.96 237.7 234.02 237.7 234.01 237.62"/><path class="cls-6" d="M279.69,280.77l0,.25,4.25.75H454.66a.5.5,0,0,0,.36-.16l-.83-.84H279.69Z" transform="translate(-44.65 -43.07)"/><path class="cls-6" d="M277.92,281.77l0-.06-5.34-.94H106.1l-.87.86-.7-.71a.5.5,0,0,0,.35.86h173Z" transform="translate(-44.65 -43.07)"/><polygon class="cls-6" points="234.02 237.7 233.96 237.7 233.99 237.76 234.03 237.77 234.02 237.7"/><polygon class="cls-6" points="235.08 237.95 235.13 238.22 239.16 239.69 384.47 265.31 385.33 264.44 239.33 238.7 235.08 237.95"/><polygon class="cls-6" points="233.24 238.64 233.22 238.59 228.08 236.72 85.09 211.5 84.22 212.37 227.9 237.7 233.24 238.64"/><polygon class="cls-6" points="234.03 237.77 233.99 237.76 234 237.81 234.04 237.82 234.03 237.77"/><polygon class="cls-6" points="233.22 238.59 233.21 238.54 228.41 235.78 105.8 191.15 105 191.92 228.08 236.72 233.22 238.59"/><polygon class="cls-6" points="235.13 238.22 235.18 238.53 238.81 240.62 363.9 286.15 364.67 285.37 239.16 239.69 235.13 238.22"/><polygon class="cls-6" points="234.04 237.82 234 237.81 234.02 237.86 234.05 237.88 234.04 237.82"/><polygon class="cls-6" points="235.18 238.53 235.25 238.92 238.31 241.49 346.39 303.89 347.12 303.15 238.81 240.62 235.18 238.53"/><polygon class="cls-6" points="233.21 238.54 233.19 238.5 228.92 234.91 123.3 173.93 122.56 174.66 228.41 235.78 233.21 238.54"/><polygon class="cls-6" points="234.05 237.88 234.02 237.86 234.04 237.9 234.06 237.92 234.05 237.88"/><polygon class="cls-6" points="233.19 238.5 233.18 238.46 229.56 234.15 139.19 158.31 138.47 159.02 228.92 234.91 233.19 238.5"/><polygon class="cls-6" points="235.25 238.92 235.35 239.49 237.67 242.25 330.41 320.08 331.12 319.36 238.31 241.49 235.25 238.92"/><polygon class="cls-6" points="234.06 237.92 234.04 237.9 234.05 237.95 234.06 237.96 234.06 237.92"/><polygon class="cls-6" points="233.18 238.46 233.16 238.41 230.32 233.5 154.55 143.2 153.84 143.91 229.56 234.15 233.18 238.46"/><polygon class="cls-6" points="235.35 239.49 235.53 240.52 236.9 242.9 237.12 243.15 314.87 335.82 315.58 335.1 237.67 242.25 235.35 239.49"/><polygon class="cls-6" points="234.06 237.96 234.05 237.95 234.07 237.99 234.07 237.99 234.06 237.96"/><polygon class="cls-6" points="236.9 242.9 235.53 240.52 236.04 243.4 236.12 243.53 237.12 245.27 298.8 352.1 299.53 351.37 237.12 243.27 236.9 242.9"/><polygon class="cls-6" points="233.16 238.41 231.19 233 170.37 127.66 169.63 128.38 230.32 233.5 233.16 238.41"/><polygon class="cls-6" points="234.07 237.99 234.07 238 234.07 237.99 234.07 237.99"/><polygon class="cls-6" points="236.12 243.61 236.04 243.41 237.04 249.07 237.12 249.28 281.07 370.06 281.85 369.27 237.12 246.36 236.12 243.61"/><polygon class="cls-6" points="233.16 238.41 233.18 238.46 233.19 238.5 233.21 238.54 233.22 238.59 233.24 238.64 233.26 238.7 233.29 238.77 233.31 238.84 233.35 238.93 233.39 239.04 233.44 239.19 233.51 239.38 233.61 239.66 233.77 240.1 234.46 241.98 235.07 243.66 234.07 238 234.07 237.99 234.05 237.95 234.04 237.9 234.02 237.86 234 237.81 233.99 237.76 233.96 237.7 233.94 237.64 233.91 237.56 233.88 237.47 233.84 237.36 233.79 237.22 233.72 237.02 233.61 236.74 187.71 110.61 186.92 111.38 231.19 233 233.16 238.41"/><polygon class="cls-6" points="233.86 236.78 233.91 237.07 233.94 237.27 233.97 237.42 233.99 237.53 234.01 237.62 234.02 237.7 234.03 237.77 234.04 237.82 234.05 237.88 234.06 237.92 234.06 237.96 234.07 237.99 234.07 238 235.07 243.66 236.12 249.59 237.12 255.26 260.95 390.44 261.81 389.57 237.12 249.51 237.04 249.07 236.04 243.41 236.04 243.4 235.53 240.52 235.35 239.49 235.25 238.92 235.18 238.53 235.13 238.22 235.08 237.95 235.03 237.7 234.99 237.45 234.94 237.19 234.89 236.89 234.83 236.53 234.75 236.07 234.63 235.43 234.46 234.43 208.94 89.72 208.08 90.58 233.77 236.3 233.86 236.78"/></g><g id="Festival"><path class="cls-9" d="M231.27,358.47v2.66h-7.88v13h6.51v2.66h-6.51v6.13h-2.77V358.47Z" transform="translate(-44.65 -43.07)"/><path class="cls-9" d="M245.07,358.47v2.66h-7.88v13h6.51v2.66h-6.51v3.47h7.88v2.66H234.43V358.47Z" transform="translate(-44.65 -43.07)"/><path class="cls-9" d="M254.79,367.64c3.47,2.07,6.93,4,6.93,8.58,0,3.47-2.77,6.76-6.37,6.76a6.26,6.26,0,0,1-6.3-6h2.77a3.5,3.5,0,0,0,3.54,3.22c2,0,3.61-2.07,3.61-4,0-6.27-9.91-5-9.91-12.68a5.29,5.29,0,0,1,5.43-5.18,5.11,5.11,0,0,1,5.22,5.18h-2.77a2.35,2.35,0,0,0-2.45-2.42,2.53,2.53,0,0,0-2.66,2.42C251.82,365.65,253.18,366.66,254.79,367.64Z" transform="translate(-44.65 -43.07)"/><path class="cls-9" d="M271.52,382.88h-2.8V361.13H263.6v-2.66h13v2.66h-5.11Z" transform="translate(-44.65 -43.07)"/><path class="cls-9" d="M282.72,358.47v24.41H280V358.47Z" transform="translate(-44.65 -43.07)"/><path class="cls-9" d="M302.26,358.47,294,383l-8.3-24.51h2.77L294,374.79l5.5-16.32Z" transform="translate(-44.65 -43.07)"/><path class="cls-9" d="M312.39,379.3h-8.58l-1.23,3.57h-2.77l8.3-24.51,8.26,24.51h-2.77Zm-.88-2.66-3.4-10.08-3.43,10.08Z" transform="translate(-44.65 -43.07)"/><path class="cls-9" d="M322.3,358.47v21.75h7.88v2.66H319.53V358.47Z" transform="translate(-44.65 -43.07)"/><path class="cls-6" d="M231.27,358.47v2.66h-7.88v13h6.51v2.66h-6.51v6.13h-2.77V358.47Z" transform="translate(-44.65 -43.07)"/><path class="cls-6" d="M245.07,358.47v2.66h-7.88v13h6.51v2.66h-6.51v3.47h7.88v2.66H234.43V358.47Z" transform="translate(-44.65 -43.07)"/><path class="cls-6" d="M254.79,367.64c3.47,2.07,6.93,4,6.93,8.58,0,3.47-2.77,6.76-6.37,6.76a6.26,6.26,0,0,1-6.3-6h2.77a3.5,3.5,0,0,0,3.54,3.22c2,0,3.61-2.07,3.61-4,0-6.27-9.91-5-9.91-12.68a5.29,5.29,0,0,1,5.43-5.18,5.11,5.11,0,0,1,5.22,5.18h-2.77a2.35,2.35,0,0,0-2.45-2.42,2.53,2.53,0,0,0-2.66,2.42C251.82,365.65,253.18,366.66,254.79,367.64Z" transform="translate(-44.65 -43.07)"/><path class="cls-6" d="M271.52,382.88h-2.8V361.13H263.6v-2.66h13v2.66h-5.11Z" transform="translate(-44.65 -43.07)"/><path class="cls-6" d="M282.72,358.47v24.41H280V358.47Z" transform="translate(-44.65 -43.07)"/><path class="cls-6" d="M302.26,358.47,294,383l-8.3-24.51h2.77L294,374.79l5.5-16.32Z" transform="translate(-44.65 -43.07)"/><path class="cls-6" d="M312.39,379.3h-8.58l-1.23,3.57h-2.77l8.3-24.51,8.26,24.51h-2.77Zm-.88-2.66-3.4-10.08-3.43,10.08Z" transform="translate(-44.65 -43.07)"/><path class="cls-6" d="M322.3,358.47v21.75h7.88v2.66H319.53V358.47Z" transform="translate(-44.65 -43.07)"/></g><circle class="cls-10" cx="341.59" cy="214.48" r="26.46"/><path class="cls-10" d="M174.93,238.66a21.11,21.11,0,0,0,4-12.7,23,23,0,0,0-10.43-19.27l-.09-.06c-4.57-2.61-10-3.78-17.64-3.78-32.54,0-56.16,22.2-56.16,52.78,0,28.18,20.29,49.95,48.65,52.75v27.75a45.22,45.22,0,0,1-23.06-14.23l-2-2.41-11,10.1,1.91,2.21a59.1,59.1,0,0,0,45.29,20.76c33,0,58.79-26.15,58.79-59.54C213.15,268.19,198.3,247.32,174.93,238.66Zm-16.45-5.07V218.79c4.65,1.6,5.27,4.86,5.27,7.35A7.52,7.52,0,0,1,158.48,233.58Zm-48.65,22.24c0-11.89,5.56-23.69,14.17-30.07a39.76,39.76,0,0,1,19.28-7.38V293c-6.91-1-11.64-2.62-16.59-5.71A37.81,37.81,0,0,1,109.83,255.83Zm48.65,68.9V307.54c6.69-1.35,10.47-3.14,16.6-6.89l2.42-1.48-7.14-13.36-2.7,1.62a36.75,36.75,0,0,1-9.17,4.34V249.84c7.79,1.13,13,2.88,18.35,6.1A44,44,0,0,1,154,337.55a41.74,41.74,0,0,1-8-.8Z" transform="translate(-44.65 -43.07)"/><path class="cls-11" d="M250.53,232.33c-3-4.28-7.89-6.64-13.73-6.64a16.36,16.36,0,0,0-12.91,5.65c-3.22,3.54-4,6.73-4,15.54v5.9h-6.77l2.85,8.71h3.93v87.72l8.71-8.18V261.49H245V332.4h8.71v-86C253.75,238.84,253.06,235.81,250.53,232.33ZM245,243.59v9.18H228.55v-9c0-5.67,3.42-9.34,8.71-9.34C242,234.41,245,238,245,243.59Z" transform="translate(-44.65 -43.07)"/><polygon class="cls-11" points="236.77 282.98 236.77 186.24 228.06 186.24 228.06 291.7 256.18 291.7 256.18 282.98 236.77 282.98"/><path class="cls-11" d="M325.86,255.73a15.26,15.26,0,0,0,4.79-11.51,16.82,16.82,0,0,0-10.36-15.67c-3.12-1.15-6.6-1.6-12.39-1.6H305V334l8.71-8.36V261.87c7.92.94,12.89,2.5,18.15,5.65a38.66,38.66,0,0,1-20.08,71.67,48.69,48.69,0,0,1-6.2-.47l-.58-.07v8.72l.46.05a42.33,42.33,0,0,0,6,.32,47.13,47.13,0,0,0,47.64-47.64C359.14,279.27,346.12,262,325.86,255.73Zm-3.92-11.35a8.42,8.42,0,0,1-8.19,8.54V235.74C319.11,236.62,321.94,239.6,321.94,244.37Z" transform="translate(-44.65 -43.07)"/><path class="cls-11" d="M386.33,224.93a32.61,32.61,0,1,0,32.61,32.61A32.73,32.73,0,0,0,386.33,224.93Zm0,56.51a23.9,23.9,0,1,1,23.9-23.9A24,24,0,0,1,386.33,281.45Z" transform="translate(-44.65 -43.07)"/><path class="cls-11" d="M461.69,231.64c-3-4.28-7.89-6.64-13.73-6.64-6.67,0-12.29,3.27-15,8.74-1.48,3-1.93,5.87-1.93,12.44v5.74h-6.78l2.85,8.56H431v71.23h8.56V260.49H456.2v71.23h8.72v-86C464.92,238.15,464.22,235.13,461.69,231.64ZM456.2,242.9v9H439.55v-8.87c0-5.59,3.5-9.34,8.71-9.34C453.16,233.72,456.2,237.24,456.2,242.9Z" transform="translate(-44.65 -43.07)"/><path class="cls-12" d="M146.28,305.61c-28.37-1.5-48.65-22.54-48.65-50,0-28.74,22.35-49.78,53.16-49.78,7.33,0,12.21,1.13,16.15,3.38A20,20,0,0,1,176,226,18.14,18.14,0,0,1,169.57,240c24.61,7.14,40.58,27.8,40.58,53,0,31.56-24.61,56.54-55.79,56.54a56.43,56.43,0,0,1-43-19.72l6.57-6c8.45,10.14,22.54,16.72,36.07,16.72a47,47,0,0,0,24.42-87.16c-6.57-3.94-13-5.82-22.92-7v49.22c5.64-1.31,8.08-2.25,13.71-5.64l4.32,8.08c-6.76,4.13-10.33,5.64-18,7v18.41l-9.2,8.83Zm-24-82.28c-9.39,7-15.4,19.72-15.4,32.5a41,41,0,0,0,18.22,34c6,3.76,11.83,5.64,21.23,6.57V215.06C136.32,215.82,129.37,218.26,122.23,223.33Zm44.52,2.82c0-6.39-3.94-10.14-11.27-11.08v22C162.06,237,166.75,232.35,166.75,226.15Z" transform="translate(-44.65 -43.07)"/><path class="cls-13" d="M250.53,232.33c-3-4.28-7.89-6.64-13.73-6.64a16.36,16.36,0,0,0-12.91,5.65c-3.22,3.54-4,6.73-4,15.54v5.9h-6.77l2.85,8.71h3.93v87.72l8.71-8.18V261.49H245V332.4h8.71v-86C253.75,238.84,253.06,235.81,250.53,232.33ZM245,243.59v9.18H228.55v-9c0-5.67,3.42-9.34,8.71-9.34C242,234.41,245,238,245,243.59Z" transform="translate(-44.65 -43.07)"/><polygon class="cls-14" points="236.77 282.98 236.77 186.24 228.06 186.24 228.06 291.7 256.18 291.7 256.18 282.98 236.77 282.98"/><path class="cls-15" d="M325.86,255.73a15.26,15.26,0,0,0,4.79-11.51,16.82,16.82,0,0,0-10.36-15.67c-3.12-1.15-6.6-1.6-12.39-1.6H305V334l8.71-8.36V261.87c7.92.94,12.89,2.5,18.15,5.65a38.66,38.66,0,0,1-20.08,71.67,48.69,48.69,0,0,1-6.2-.47l-.58-.07v8.72l.46.05a42.33,42.33,0,0,0,6,.32,47.13,47.13,0,0,0,47.64-47.64C359.14,279.27,346.12,262,325.86,255.73Zm-3.92-11.35a8.42,8.42,0,0,1-8.19,8.54V235.74C319.11,236.62,321.94,239.6,321.94,244.37Z" transform="translate(-44.65 -43.07)"/><path class="cls-16" d="M386.33,224.93a32.61,32.61,0,1,0,32.61,32.61A32.73,32.73,0,0,0,386.33,224.93Zm0,56.51a23.9,23.9,0,1,1,23.9-23.9A24,24,0,0,1,386.33,281.45Z" transform="translate(-44.65 -43.07)"/><path class="cls-17" d="M461.69,231.64c-3-4.28-7.89-6.64-13.73-6.64-6.67,0-12.29,3.27-15,8.74-1.48,3-1.93,5.87-1.93,12.44v5.74h-6.78l2.85,8.56H431v71.23h8.56V260.49H456.2v71.23h8.72v-86C464.92,238.15,464.22,235.13,461.69,231.64ZM456.2,242.9v9H439.55v-8.87c0-5.59,3.5-9.34,8.71-9.34C453.16,233.72,456.2,237.24,456.2,242.9Z" transform="translate(-44.65 -43.07)"/><path class="cls-18" d="M146.28,305.61c-28.37-1.5-48.65-22.54-48.65-50,0-28.74,22.35-49.78,53.16-49.78,7.33,0,12.21,1.13,16.15,3.38A20,20,0,0,1,176,226,18.14,18.14,0,0,1,169.57,240c24.61,7.14,40.58,27.8,40.58,53,0,31.56-24.61,56.54-55.79,56.54a56.43,56.43,0,0,1-43-19.72l6.57-6c8.45,10.14,22.54,16.72,36.07,16.72a47,47,0,0,0,24.42-87.16c-6.57-3.94-13-5.82-22.92-7v49.22c5.64-1.31,8.08-2.25,13.71-5.64l4.32,8.08c-6.76,4.13-10.33,5.64-18,7v18.41l-9.2,8.83Zm-24-82.28c-9.39,7-15.4,19.72-15.4,32.5a41,41,0,0,0,18.22,34c6,3.76,11.83,5.64,21.23,6.57V215.06C136.32,215.82,129.37,218.26,122.23,223.33Zm44.52,2.82c0-6.39-3.94-10.14-11.27-11.08v22C162.06,237,166.75,232.35,166.75,226.15Z" transform="translate(-44.65 -43.07)"/><path class="cls-18" d="M250.53,232.33c-3-4.28-7.89-6.64-13.73-6.64a16.36,16.36,0,0,0-12.91,5.65c-3.22,3.54-4,6.73-4,15.54v5.9h-6.77l2.85,8.71h3.93v87.72l8.71-8.18V261.49H245V332.4h8.71v-86C253.75,238.84,253.06,235.81,250.53,232.33ZM245,243.59v9.18H228.55v-9c0-5.67,3.42-9.34,8.71-9.34C242,234.41,245,238,245,243.59Z" transform="translate(-44.65 -43.07)"/><polygon class="cls-18" points="236.77 282.98 236.77 186.24 228.06 186.24 228.06 291.7 256.18 291.7 256.18 282.98 236.77 282.98"/><path class="cls-18" d="M325.86,255.73a15.26,15.26,0,0,0,4.79-11.51,16.82,16.82,0,0,0-10.36-15.67c-3.12-1.15-6.6-1.6-12.39-1.6H305V334l8.71-8.36V261.87c7.92.94,12.89,2.5,18.15,5.65a38.66,38.66,0,0,1-20.08,71.67,48.69,48.69,0,0,1-6.2-.47l-.58-.07v8.72l.46.05a42.33,42.33,0,0,0,6,.32,47.13,47.13,0,0,0,47.64-47.64C359.14,279.27,346.12,262,325.86,255.73Zm-3.92-11.35a8.42,8.42,0,0,1-8.19,8.54V235.74C319.11,236.62,321.94,239.6,321.94,244.37Z" transform="translate(-44.65 -43.07)"/><path class="cls-18" d="M386.33,224.93a32.61,32.61,0,1,0,32.61,32.61A32.73,32.73,0,0,0,386.33,224.93Zm0,56.51a23.9,23.9,0,1,1,23.9-23.9A24,24,0,0,1,386.33,281.45Z" transform="translate(-44.65 -43.07)"/><path class="cls-18" d="M461.69,231.64c-3-4.28-7.89-6.64-13.73-6.64-6.67,0-12.29,3.27-15,8.74-1.48,3-1.93,5.87-1.93,12.44v5.74h-6.78l2.85,8.56H431v71.23h8.56V260.49H456.2v71.23h8.72v-86C464.92,238.15,464.22,235.13,461.69,231.64ZM456.2,242.9v9H439.55v-8.87c0-5.59,3.5-9.34,8.71-9.34C453.16,233.72,456.2,237.24,456.2,242.9Z" transform="translate(-44.65 -43.07)"/><path class="cls-9" d="M204,193.73h5.64a4.44,4.44,0,0,1,4.52,4.41A4.29,4.29,0,0,1,213,201,8.81,8.81,0,0,1,217.5,209a8.92,8.92,0,0,1-9.24,9.14H204Zm5.64,6.13a1.73,1.73,0,0,0,1.75-1.72,1.76,1.76,0,0,0-1.75-1.75h-2.87v3.47Zm-2.87,15.62h1.51a6.48,6.48,0,0,0,0-13h-1.51Z" transform="translate(-44.65 -43.07)"/><path class="cls-9" d="M231,214.56h-8.58l-1.23,3.57h-2.77l8.3-24.51,8.26,24.51h-2.77Zm-.88-2.66-3.4-10.09-3.43,10.09Z" transform="translate(-44.65 -43.07)"/><path class="cls-9" d="M242,193.73a8.92,8.92,0,0,1,9.24,9.14,8.78,8.78,0,0,1-5,8.19l5,7.07H248l-4.2-6.27a20.69,20.69,0,0,1-3.29.14v6.13h-2.77V193.73Zm0,15.62a6.48,6.48,0,0,0,0-13h-1.51v13Z" transform="translate(-44.65 -43.07)"/><path class="cls-9" d="M267.51,193.73v2.77a8.93,8.93,0,0,0-1.37-.1,9.54,9.54,0,1,0,0,19.08,8.93,8.93,0,0,0,1.37-.1v2.8c-.46,0-.91.07-1.37.07a12.31,12.31,0,1,1,0-24.62A9,9,0,0,1,267.51,193.73Z" transform="translate(-44.65 -43.07)"/><path class="cls-9" d="M281.31,193.73v2.66h-7.88v13h6.51V212h-6.51v3.47h7.88v2.66H270.67V193.73Z" transform="translate(-44.65 -43.07)"/><path class="cls-9" d="M288.23,193.73v21.75h7.88v2.66H285.47V193.73Z" transform="translate(-44.65 -43.07)"/><path class="cls-9" d="M322.47,205.95a12.33,12.33,0,1,1-12.33-12.33A12.32,12.32,0,0,1,322.47,205.95Zm-21.89,0a9.54,9.54,0,1,0,9.56-9.56A9.54,9.54,0,0,0,300.58,205.95Z" transform="translate(-44.65 -43.07)"/><path class="cls-9" d="M338.4,193.73v24.41h-2.77L328,200.28v17.86h-2.77V193.73H328l7.6,17.86V193.73Z" transform="translate(-44.65 -43.07)"/><path class="cls-9" d="M353.78,214.56H345.2L344,218.13H341.2l8.3-24.51,8.26,24.51H355Zm-.88-2.66-3.4-10.09-3.43,10.09Z" transform="translate(-44.65 -43.07)"/><path class="cls-6" d="M204,193.73h5.64a4.44,4.44,0,0,1,4.52,4.41A4.29,4.29,0,0,1,213,201,8.81,8.81,0,0,1,217.5,209a8.92,8.92,0,0,1-9.24,9.14H204Zm5.64,6.13a1.73,1.73,0,0,0,1.75-1.72,1.76,1.76,0,0,0-1.75-1.75h-2.87v3.47Zm-2.87,15.62h1.51a6.48,6.48,0,0,0,0-13h-1.51Z" transform="translate(-44.65 -43.07)"/><path class="cls-6" d="M231,214.56h-8.58l-1.23,3.57h-2.77l8.3-24.51,8.26,24.51h-2.77Zm-.88-2.66-3.4-10.09-3.43,10.09Z" transform="translate(-44.65 -43.07)"/><path class="cls-6" d="M242,193.73a8.92,8.92,0,0,1,9.24,9.14,8.78,8.78,0,0,1-5,8.19l5,7.07H248l-4.2-6.27a20.69,20.69,0,0,1-3.29.14v6.13h-2.77V193.73Zm0,15.62a6.48,6.48,0,0,0,0-13h-1.51v13Z" transform="translate(-44.65 -43.07)"/><path class="cls-6" d="M267.51,193.73v2.77a8.93,8.93,0,0,0-1.37-.1,9.54,9.54,0,1,0,0,19.08,8.93,8.93,0,0,0,1.37-.1v2.8c-.46,0-.91.07-1.37.07a12.31,12.31,0,1,1,0-24.62A9,9,0,0,1,267.51,193.73Z" transform="translate(-44.65 -43.07)"/><path class="cls-6" d="M281.31,193.73v2.66h-7.88v13h6.51V212h-6.51v3.47h7.88v2.66H270.67V193.73Z" transform="translate(-44.65 -43.07)"/><path class="cls-6" d="M288.23,193.73v21.75h7.88v2.66H285.47V193.73Z" transform="translate(-44.65 -43.07)"/><path class="cls-6" d="M322.47,205.95a12.33,12.33,0,1,1-12.33-12.33A12.32,12.32,0,0,1,322.47,205.95Zm-21.89,0a9.54,9.54,0,1,0,9.56-9.56A9.54,9.54,0,0,0,300.58,205.95Z" transform="translate(-44.65 -43.07)"/><path class="cls-6" d="M338.4,193.73v24.41h-2.77L328,200.28v17.86h-2.77V193.73H328l7.6,17.86V193.73Z" transform="translate(-44.65 -43.07)"/><path class="cls-6" d="M353.78,214.56H345.2L344,218.13H341.2l8.3-24.51,8.26,24.51H355Zm-.88-2.66-3.4-10.09-3.43,10.09Z" transform="translate(-44.65 -43.07)"/></svg>